<?xml version="1.0" encoding="UTF-8"?>
<svg id="Layer_1" xmlns="http://www.w3.org/2000/svg" version="1.1" viewBox="0 0 50 50">
  <!-- Generator: Adobe Illustrator 30.1.0, SVG Export Plug-In . SVG Version: 2.1.1 Build 136)  -->
  <path d="M46.34,3.66c-3.66-3.66-9.55-3.66-21.34-3.66S7.32,0,3.66,3.66,0,13.21,0,25s0,17.68,3.66,21.34c3.66,3.66,9.55,3.66,21.34,3.66s17.68,0,21.34-3.66c3.66-3.66,3.66-9.55,3.66-21.34s0-17.68-3.66-21.34ZM16.17,21.17c.73-.73,1.92-.73,2.65,0l4.3,4.3v-12.97c0-1.04.84-1.88,1.88-1.88s1.88.84,1.88,1.88v12.97l4.3-4.3c.73-.73,1.92-.73,2.65,0,.73.73.73,1.92,0,2.65l-7.5,7.5c-.35.35-.83.55-1.33.55s-.97-.2-1.33-.55l-7.5-7.5c-.73-.73-.73-1.92,0-2.65ZM35,39.38H15c-1.04,0-1.88-.84-1.88-1.88s.84-1.88,1.88-1.88h20c1.04,0,1.88.84,1.88,1.88s-.84,1.88-1.88,1.88Z"/>
</svg>